<?xml version="1.0" encoding="iso-8859-1"?>
<!-- Generator: Adobe Illustrator 16.0.0, SVG Export Plug-In . SVG Version: 6.00 Build 0)  -->
<svg version="1.1" id="Capa_1" xmlns="http://www.w3.org/2000/svg" xmlns:xlink="http://www.w3.org/1999/xlink" x="0px" y="0px"
	 width="31.869px" height="31.869px" viewBox="0 0 31.869 31.869" style="enable-background:new 0 0 31.869 31.869;"
	 xml:space="preserve">
<g>
	<g>
		<path d="M0,31.741h7.942V20.543c0-1.506-1.221-2.728-2.728-2.728H2.727C1.221,17.816,0,19.038,0,20.543V31.741z" fill="white"/>
		<path d="M11.966,31.741h7.942V12.085c0-1.506-1.221-2.728-2.727-2.728h-2.49c-1.507,0-2.728,1.221-2.728,2.728L11.966,31.741
			L11.966,31.741z" fill="white"/>
		<path d="M26.656,0.127c-1.506,0-2.729,1.221-2.729,2.728v28.887h7.942V2.854c0-1.506-1.223-2.728-2.729-2.728L26.656,0.127
			L26.656,0.127z" fill="white"/>
	</g>
</g>
<g>
</g>
<g>
</g>
<g>
</g>
<g>
</g>
<g>
</g>
<g>
</g>
<g>
</g>
<g>
</g>
<g>
</g>
<g>
</g>
<g>
</g>
<g>
</g>
<g>
</g>
<g>
</g>
<g>
</g>
</svg>
